<?xml version="1.0" standalone="no"?>
<!DOCTYPE svg PUBLIC "-//W3C//DTD SVG 1.1//EN" "http://www.w3.org/Graphics/SVG/1.1/DTD/svg11.dtd">
<svg version="1.1" width="1200" height="774" onload="init(evt)" viewBox="0 0 1200 774" xmlns="http://www.w3.org/2000/svg" xmlns:xlink="http://www.w3.org/1999/xlink">
<!-- Flame graph stack visualization. See https://github.com/brendangregg/FlameGraph for latest version, and http://www.brendangregg.com/flamegraphs.html for examples. -->
<!-- NOTES:  -->
<defs>
	<linearGradient id="background" y1="0" y2="1" x1="0" x2="0" >
		<stop stop-color="#eeeeee" offset="5%" />
		<stop stop-color="#eeeeb0" offset="95%" />
	</linearGradient>
</defs>
<style type="text/css">
	text { font-family:Verdana; font-size:12px; fill:rgb(0,0,0); }
	#search, #ignorecase { opacity:0.1; cursor:pointer; }
	#search:hover, #search.show, #ignorecase:hover, #ignorecase.show { opacity:1; }
	#subtitle { text-anchor:middle; font-color:rgb(160,160,160); }
	#title { text-anchor:middle; font-size:17px}
	#unzoom { cursor:pointer; }
	#frames > *:hover { stroke:black; stroke-width:0.5; cursor:pointer; }
	.hide { display:none; }
	.parent { opacity:0.5; }
</style>
<script type="text/ecmascript">
<![CDATA[
	"use strict";
	var details, searchbtn, unzoombtn, matchedtxt, svg, searching, currentSearchTerm, ignorecase, ignorecaseBtn;
	function init(evt) {
		details = document.getElementById("details").firstChild;
		searchbtn = document.getElementById("search");
		ignorecaseBtn = document.getElementById("ignorecase");
		unzoombtn = document.getElementById("unzoom");
		matchedtxt = document.getElementById("matched");
		svg = document.getElementsByTagName("svg")[0];
		searching = 0;
		currentSearchTerm = null;

		// use GET parameters to restore a flamegraphs state.
		var params = get_params();
		if (params.x && params.y)
			zoom(find_group(document.querySelector('[x="' + params.x + '"][y="' + params.y + '"]')));
                if (params.s) search(params.s);
	}

	// event listeners
	window.addEventListener("click", function(e) {
		var target = find_group(e.target);
		if (target) {
			if (target.nodeName == "a") {
				if (e.ctrlKey === false) return;
				e.preventDefault();
			}
			if (target.classList.contains("parent")) unzoom(true);
			zoom(target);
			if (!document.querySelector('.parent')) {
				// we have basically done a clearzoom so clear the url
				var params = get_params();
				if (params.x) delete params.x;
				if (params.y) delete params.y;
				history.replaceState(null, null, parse_params(params));
				unzoombtn.classList.add("hide");
				return;
			}

			// set parameters for zoom state
			var el = target.querySelector("rect");
			if (el && el.attributes && el.attributes.y && el.attributes._orig_x) {
				var params = get_params()
				params.x = el.attributes._orig_x.value;
				params.y = el.attributes.y.value;
				history.replaceState(null, null, parse_params(params));
			}
		}
		else if (e.target.id == "unzoom") clearzoom();
		else if (e.target.id == "search") search_prompt();
		else if (e.target.id == "ignorecase") toggle_ignorecase();
	}, false)

	// mouse-over for info
	// show
	window.addEventListener("mouseover", function(e) {
		var target = find_group(e.target);
		if (target) details.nodeValue = "Function: " + g_to_text(target);
	}, false)

	// clear
	window.addEventListener("mouseout", function(e) {
		var target = find_group(e.target);
		if (target) details.nodeValue = ' ';
	}, false)

	// ctrl-F for search
	// ctrl-I to toggle case-sensitive search
	window.addEventListener("keydown",function (e) {
		if (e.keyCode === 114 || (e.ctrlKey && e.keyCode === 70)) {
			e.preventDefault();
			search_prompt();
		}
		else if (e.ctrlKey && e.keyCode === 73) {
			e.preventDefault();
			toggle_ignorecase();
		}
	}, false)

	// functions
	function get_params() {
		var params = {};
		var paramsarr = window.location.search.substr(1).split('&');
		for (var i = 0; i < paramsarr.length; ++i) {
			var tmp = paramsarr[i].split("=");
			if (!tmp[0] || !tmp[1]) continue;
			params[tmp[0]]  = decodeURIComponent(tmp[1]);
		}
		return params;
	}
	function parse_params(params) {
		var uri = "?";
		for (var key in params) {
			uri += key + '=' + encodeURIComponent(params[key]) + '&';
		}
		if (uri.slice(-1) == "&")
			uri = uri.substring(0, uri.length - 1);
		if (uri == '?')
			uri = window.location.href.split('?')[0];
		return uri;
	}
	function find_child(node, selector) {
		var children = node.querySelectorAll(selector);
		if (children.length) return children[0];
	}
	function find_group(node) {
		var parent = node.parentElement;
		if (!parent) return;
		if (parent.id == "frames") return node;
		return find_group(parent);
	}
	function orig_save(e, attr, val) {
		if (e.attributes["_orig_" + attr] != undefined) return;
		if (e.attributes[attr] == undefined) return;
		if (val == undefined) val = e.attributes[attr].value;
		e.setAttribute("_orig_" + attr, val);
	}
	function orig_load(e, attr) {
		if (e.attributes["_orig_"+attr] == undefined) return;
		e.attributes[attr].value = e.attributes["_orig_" + attr].value;
		e.removeAttribute("_orig_"+attr);
	}
	function g_to_text(e) {
		var text = find_child(e, "title").firstChild.nodeValue;
		return (text)
	}
	function g_to_func(e) {
		var func = g_to_text(e);
		// if there's any manipulation we want to do to the function
		// name before it's searched, do it here before returning.
		return (func);
	}
	function update_text(e) {
		var r = find_child(e, "rect");
		var t = find_child(e, "text");
		var w = parseFloat(r.attributes.width.value) -3;
		var txt = find_child(e, "title").textContent.replace(/\([^(]*\)$/,"");
		t.attributes.x.value = parseFloat(r.attributes.x.value) + 3;

		// Smaller than this size won't fit anything
		if (w < 2 * 12 * 0.59) {
			t.textContent = "";
			return;
		}

		t.textContent = txt;
		var sl = t.getSubStringLength(0, txt.length);
		// check if only whitespace or if we can fit the entire string into width w
		if (/^ *$/.test(txt) || sl < w)
			return;

		// this isn't perfect, but gives a good starting point
		// and avoids calling getSubStringLength too often
		var start = Math.floor((w/sl) * txt.length);
		for (var x = start; x > 0; x = x-2) {
			if (t.getSubStringLength(0, x + 2) <= w) {
				t.textContent = txt.substring(0, x) + "..";
				return;
			}
		}
		t.textContent = "";
	}

	// zoom
	function zoom_reset(e) {
		if (e.attributes != undefined) {
			orig_load(e, "x");
			orig_load(e, "width");
		}
		if (e.childNodes == undefined) return;
		for (var i = 0, c = e.childNodes; i < c.length; i++) {
			zoom_reset(c[i]);
		}
	}
	function zoom_child(e, x, ratio) {
		if (e.attributes != undefined) {
			if (e.attributes.x != undefined) {
				orig_save(e, "x");
				e.attributes.x.value = (parseFloat(e.attributes.x.value) - x - 10) * ratio + 10;
				if (e.tagName == "text")
					e.attributes.x.value = find_child(e.parentNode, "rect[x]").attributes.x.value + 3;
			}
			if (e.attributes.width != undefined) {
				orig_save(e, "width");
				e.attributes.width.value = parseFloat(e.attributes.width.value) * ratio;
			}
		}

		if (e.childNodes == undefined) return;
		for (var i = 0, c = e.childNodes; i < c.length; i++) {
			zoom_child(c[i], x - 10, ratio);
		}
	}
	function zoom_parent(e) {
		if (e.attributes) {
			if (e.attributes.x != undefined) {
				orig_save(e, "x");
				e.attributes.x.value = 10;
			}
			if (e.attributes.width != undefined) {
				orig_save(e, "width");
				e.attributes.width.value = parseInt(svg.width.baseVal.value) - (10 * 2);
			}
		}
		if (e.childNodes == undefined) return;
		for (var i = 0, c = e.childNodes; i < c.length; i++) {
			zoom_parent(c[i]);
		}
	}
	function zoom(node) {
		var attr = find_child(node, "rect").attributes;
		var width = parseFloat(attr.width.value);
		var xmin = parseFloat(attr.x.value);
		var xmax = parseFloat(xmin + width);
		var ymin = parseFloat(attr.y.value);
		var ratio = (svg.width.baseVal.value - 2 * 10) / width;

		// XXX: Workaround for JavaScript float issues (fix me)
		var fudge = 0.0001;

		unzoombtn.classList.remove("hide");

		var el = document.getElementById("frames").children;
		for (var i = 0; i < el.length; i++) {
			var e = el[i];
			var a = find_child(e, "rect").attributes;
			var ex = parseFloat(a.x.value);
			var ew = parseFloat(a.width.value);
			var upstack;
			// Is it an ancestor
			if (0 == 0) {
				upstack = parseFloat(a.y.value) > ymin;
			} else {
				upstack = parseFloat(a.y.value) < ymin;
			}
			if (upstack) {
				// Direct ancestor
				if (ex <= xmin && (ex+ew+fudge) >= xmax) {
					e.classList.add("parent");
					zoom_parent(e);
					update_text(e);
				}
				// not in current path
				else
					e.classList.add("hide");
			}
			// Children maybe
			else {
				// no common path
				if (ex < xmin || ex + fudge >= xmax) {
					e.classList.add("hide");
				}
				else {
					zoom_child(e, xmin, ratio);
					update_text(e);
				}
			}
		}
		search();
	}
	function unzoom(dont_update_text) {
		unzoombtn.classList.add("hide");
		var el = document.getElementById("frames").children;
		for(var i = 0; i < el.length; i++) {
			el[i].classList.remove("parent");
			el[i].classList.remove("hide");
			zoom_reset(el[i]);
			if(!dont_update_text) update_text(el[i]);
		}
		search();
	}
	function clearzoom() {
		unzoom();

		// remove zoom state
		var params = get_params();
		if (params.x) delete params.x;
		if (params.y) delete params.y;
		history.replaceState(null, null, parse_params(params));
	}

	// search
	function toggle_ignorecase() {
		ignorecase = !ignorecase;
		if (ignorecase) {
			ignorecaseBtn.classList.add("show");
		} else {
			ignorecaseBtn.classList.remove("show");
		}
		reset_search();
		search();
	}
	function reset_search() {
		var el = document.querySelectorAll("#frames rect");
		for (var i = 0; i < el.length; i++) {
			orig_load(el[i], "fill")
		}
		var params = get_params();
		delete params.s;
		history.replaceState(null, null, parse_params(params));
	}
	function search_prompt() {
		if (!searching) {
			var term = prompt("Enter a search term (regexp " +
			    "allowed, eg: ^ext4_)"
			    + (ignorecase ? ", ignoring case" : "")
			    + "\nPress Ctrl-i to toggle case sensitivity", "");
			if (term != null) search(term);
		} else {
			reset_search();
			searching = 0;
			currentSearchTerm = null;
			searchbtn.classList.remove("show");
			searchbtn.firstChild.nodeValue = "Search"
			matchedtxt.classList.add("hide");
			matchedtxt.firstChild.nodeValue = ""
		}
	}
	function search(term) {
		if (term) currentSearchTerm = term;
		if (currentSearchTerm === null) return;

		var re = new RegExp(currentSearchTerm, ignorecase ? 'i' : '');
		var el = document.getElementById("frames").children;
		var matches = new Object();
		var maxwidth = 0;
		for (var i = 0; i < el.length; i++) {
			var e = el[i];
			var func = g_to_func(e);
			var rect = find_child(e, "rect");
			if (func == null || rect == null)
				continue;

			// Save max width. Only works as we have a root frame
			var w = parseFloat(rect.attributes.width.value);
			if (w > maxwidth)
				maxwidth = w;

			if (func.match(re)) {
				// highlight
				var x = parseFloat(rect.attributes.x.value);
				orig_save(rect, "fill");
				rect.attributes.fill.value = "rgb(230,0,230)";

				// remember matches
				if (matches[x] == undefined) {
					matches[x] = w;
				} else {
					if (w > matches[x]) {
						// overwrite with parent
						matches[x] = w;
					}
				}
				searching = 1;
			}
		}
		if (!searching)
			return;
		var params = get_params();
		params.s = currentSearchTerm;
		history.replaceState(null, null, parse_params(params));

		searchbtn.classList.add("show");
		searchbtn.firstChild.nodeValue = "Reset Search";

		// calculate percent matched, excluding vertical overlap
		var count = 0;
		var lastx = -1;
		var lastw = 0;
		var keys = Array();
		for (k in matches) {
			if (matches.hasOwnProperty(k))
				keys.push(k);
		}
		// sort the matched frames by their x location
		// ascending, then width descending
		keys.sort(function(a, b){
			return a - b;
		});
		// Step through frames saving only the biggest bottom-up frames
		// thanks to the sort order. This relies on the tree property
		// where children are always smaller than their parents.
		var fudge = 0.0001;	// JavaScript floating point
		for (var k in keys) {
			var x = parseFloat(keys[k]);
			var w = matches[keys[k]];
			if (x >= lastx + lastw - fudge) {
				count += w;
				lastx = x;
				lastw = w;
			}
		}
		// display matched percent
		matchedtxt.classList.remove("hide");
		var pct = 100 * count / maxwidth;
		if (pct != 100) pct = pct.toFixed(1)
		matchedtxt.firstChild.nodeValue = "Matched: " + pct + "%";
	}
]]>
</script>
<rect x="0.0" y="0" width="1200.0" height="774.0" fill="url(#background)"  />
<text id="title" x="600.00" y="24" >Flame Graph</text>
<text id="details" x="10.00" y="757" > </text>
<text id="unzoom" x="10.00" y="24" class="hide">Reset Zoom</text>
<text id="search" x="1090.00" y="24" >Search</text>
<text id="ignorecase" x="1174.00" y="24" >ic</text>
<text id="matched" x="1090.00" y="757" > </text>
<g id="frames">
<g >
<title>[unknown] (207,969 samples, 8.04%)</title><rect x="1095.1" y="405" width="94.9" height="15.0" fill="rgb(210,24,5)" rx="2" ry="2" />
<text  x="1098.14" y="415.5" >[unknown]</text>
</g>
<g >
<title>[unknown] (997,393 samples, 38.55%)</title><rect x="325.2" y="341" width="454.9" height="15.0" fill="rgb(210,24,5)" rx="2" ry="2" />
<text  x="328.18" y="351.5" >[unknown]</text>
</g>
<g >
<title>[unknown] (583,361 samples, 22.55%)</title><rect x="514.0" y="133" width="266.1" height="15.0" fill="rgb(210,24,5)" rx="2" ry="2" />
<text  x="517.03" y="143.5" >[unknown]</text>
</g>
<g >
<title>[unknown] (997,393 samples, 38.55%)</title><rect x="325.2" y="469" width="454.9" height="15.0" fill="rgb(210,24,5)" rx="2" ry="2" />
<text  x="328.18" y="479.5" >[unknown]</text>
</g>
<g >
<title>[unknown] (497,682 samples, 19.24%)</title><rect x="780.1" y="453" width="227.0" height="15.0" fill="rgb(210,24,5)" rx="2" ry="2" />
<text  x="783.12" y="463.5" >[unknown]</text>
</g>
<g >
<title>[unknown] (98,278 samples, 3.80%)</title><rect x="152.3" y="581" width="44.9" height="15.0" fill="rgb(210,24,5)" rx="2" ry="2" />
<text  x="155.34" y="591.5" >[unk..</text>
</g>
<g >
<title>__mprotect (497,682 samples, 19.24%)</title><rect x="780.1" y="597" width="227.0" height="15.0" fill="rgb(214,43,10)" rx="2" ry="2" />
<text  x="783.12" y="607.5" >__mprotect</text>
</g>
<g >
<title>[unknown] (997,393 samples, 38.55%)</title><rect x="325.2" y="325" width="454.9" height="15.0" fill="rgb(210,24,5)" rx="2" ry="2" />
<text  x="328.18" y="335.5" >[unknown]</text>
</g>
<g >
<title>dl_init_cacheinfo (400,943 samples, 15.50%)</title><rect x="1007.1" y="597" width="182.9" height="15.0" fill="rgb(231,120,28)" rx="2" ry="2" />
<text  x="1010.12" y="607.5" >dl_init_cacheinfo</text>
</g>
<g >
<title>[unknown] (98,278 samples, 3.80%)</title><rect x="152.3" y="565" width="44.9" height="15.0" fill="rgb(210,24,5)" rx="2" ry="2" />
<text  x="155.34" y="575.5" >[unk..</text>
</g>
<g >
<title>[unknown] (312,065 samples, 12.06%)</title><rect x="10.0" y="437" width="142.3" height="15.0" fill="rgb(210,24,5)" rx="2" ry="2" />
<text  x="13.00" y="447.5" >[unknown]</text>
</g>
<g >
<title>[unknown] (312,065 samples, 12.06%)</title><rect x="10.0" y="389" width="142.3" height="15.0" fill="rgb(210,24,5)" rx="2" ry="2" />
<text  x="13.00" y="399.5" >[unknown]</text>
</g>
<g >
<title>[unknown] (280,666 samples, 10.85%)</title><rect x="197.2" y="469" width="128.0" height="15.0" fill="rgb(210,24,5)" rx="2" ry="2" />
<text  x="200.17" y="479.5" >[unknown]</text>
</g>
<g >
<title>[unknown] (207,969 samples, 8.04%)</title><rect x="1095.1" y="533" width="94.9" height="15.0" fill="rgb(210,24,5)" rx="2" ry="2" />
<text  x="1098.14" y="543.5" >[unknown]</text>
</g>
<g >
<title>_dl_map_object_deps (997,393 samples, 38.55%)</title><rect x="325.2" y="613" width="454.9" height="15.0" fill="rgb(219,68,16)" rx="2" ry="2" />
<text  x="328.18" y="623.5" >_dl_map_object_deps</text>
</g>
<g >
<title>_start (2,274,962 samples, 87.94%)</title><rect x="152.3" y="693" width="1037.7" height="15.0" fill="rgb(245,185,44)" rx="2" ry="2" />
<text  x="155.34" y="703.5" >_start</text>
</g>
<g >
<title>[unknown] (583,361 samples, 22.55%)</title><rect x="514.0" y="85" width="266.1" height="15.0" fill="rgb(210,24,5)" rx="2" ry="2" />
<text  x="517.03" y="95.5" >[unknown]</text>
</g>
<g >
<title>[unknown] (98,278 samples, 3.80%)</title><rect x="152.3" y="677" width="44.9" height="15.0" fill="rgb(210,24,5)" rx="2" ry="2" />
<text  x="155.34" y="687.5" >[unk..</text>
</g>
<g >
<title>[unknown] (232,334 samples, 8.98%)</title><rect x="901.1" y="261" width="106.0" height="15.0" fill="rgb(210,24,5)" rx="2" ry="2" />
<text  x="904.15" y="271.5" >[unknown]</text>
</g>
<g >
<title>[unknown] (312,065 samples, 12.06%)</title><rect x="10.0" y="517" width="142.3" height="15.0" fill="rgb(210,24,5)" rx="2" ry="2" />
<text  x="13.00" y="527.5" >[unknown]</text>
</g>
<g >
<title>dl_main (1,495,075 samples, 57.79%)</title><rect x="325.2" y="629" width="681.9" height="15.0" fill="rgb(236,145,34)" rx="2" ry="2" />
<text  x="328.18" y="639.5" >dl_main</text>
</g>
<g >
<title>[unknown] (583,361 samples, 22.55%)</title><rect x="514.0" y="101" width="266.1" height="15.0" fill="rgb(210,24,5)" rx="2" ry="2" />
<text  x="517.03" y="111.5" >[unknown]</text>
</g>
<g >
<title>[unknown] (98,278 samples, 3.80%)</title><rect x="152.3" y="629" width="44.9" height="15.0" fill="rgb(210,24,5)" rx="2" ry="2" />
<text  x="155.34" y="639.5" >[unk..</text>
</g>
<g >
<title>[unknown] (98,278 samples, 3.80%)</title><rect x="152.3" y="533" width="44.9" height="15.0" fill="rgb(210,24,5)" rx="2" ry="2" />
<text  x="155.34" y="543.5" >[unk..</text>
</g>
<g >
<title>[unknown] (497,681 samples, 19.24%)</title><rect x="780.1" y="421" width="227.0" height="15.0" fill="rgb(210,24,5)" rx="2" ry="2" />
<text  x="783.12" y="431.5" >[unknown]</text>
</g>
<g >
<title>[unknown] (156,032 samples, 6.03%)</title><rect x="81.2" y="357" width="71.1" height="15.0" fill="rgb(210,24,5)" rx="2" ry="2" />
<text  x="84.17" y="367.5" >[unknown]</text>
</g>
<g >
<title>[unknown] (207,969 samples, 8.04%)</title><rect x="1095.1" y="373" width="94.9" height="15.0" fill="rgb(210,24,5)" rx="2" ry="2" />
<text  x="1098.14" y="383.5" >[unknown]</text>
</g>
<g >
<title>[unknown] (312,065 samples, 12.06%)</title><rect x="10.0" y="613" width="142.3" height="15.0" fill="rgb(210,24,5)" rx="2" ry="2" />
<text  x="13.00" y="623.5" >[unknown]</text>
</g>
<g >
<title>__libc_start_call_main (280,666 samples, 10.85%)</title><rect x="197.2" y="661" width="128.0" height="15.0" fill="rgb(210,26,6)" rx="2" ry="2" />
<text  x="200.17" y="671.5" >__libc_start_cal..</text>
</g>
<g >
<title>_dl_sysdep_start (1,896,018 samples, 73.29%)</title><rect x="325.2" y="645" width="864.8" height="15.0" fill="rgb(234,137,32)" rx="2" ry="2" />
<text  x="328.18" y="655.5" >_dl_sysdep_start</text>
</g>
<g >
<title>[unknown] (997,393 samples, 38.55%)</title><rect x="325.2" y="485" width="454.9" height="15.0" fill="rgb(210,24,5)" rx="2" ry="2" />
<text  x="328.18" y="495.5" >[unknown]</text>
</g>
<g >
<title>[unknown] (583,361 samples, 22.55%)</title><rect x="514.0" y="53" width="266.1" height="15.0" fill="rgb(210,24,5)" rx="2" ry="2" />
<text  x="517.03" y="63.5" >[unknown]</text>
</g>
<g >
<title>[unknown] (98,277 samples, 3.80%)</title><rect x="152.3" y="405" width="44.9" height="15.0" fill="rgb(210,24,5)" rx="2" ry="2" />
<text  x="155.34" y="415.5" >[unk..</text>
</g>
<g >
<title>[unknown] (312,065 samples, 12.06%)</title><rect x="10.0" y="549" width="142.3" height="15.0" fill="rgb(210,24,5)" rx="2" ry="2" />
<text  x="13.00" y="559.5" >[unknown]</text>
</g>
<g >
<title>[unknown] (280,666 samples, 10.85%)</title><rect x="197.2" y="501" width="128.0" height="15.0" fill="rgb(210,24,5)" rx="2" ry="2" />
<text  x="200.17" y="511.5" >[unknown]</text>
</g>
<g >
<title>[unknown] (207,969 samples, 8.04%)</title><rect x="1095.1" y="565" width="94.9" height="15.0" fill="rgb(210,24,5)" rx="2" ry="2" />
<text  x="1098.14" y="575.5" >[unknown]</text>
</g>
<g >
<title>[unknown] (997,391 samples, 38.55%)</title><rect x="325.2" y="309" width="454.9" height="15.0" fill="rgb(210,24,5)" rx="2" ry="2" />
<text  x="328.19" y="319.5" >[unknown]</text>
</g>
<g >
<title>[unknown] (232,334 samples, 8.98%)</title><rect x="901.1" y="293" width="106.0" height="15.0" fill="rgb(210,24,5)" rx="2" ry="2" />
<text  x="904.15" y="303.5" >[unknown]</text>
</g>
<g >
<title>[unknown] (280,666 samples, 10.85%)</title><rect x="197.2" y="485" width="128.0" height="15.0" fill="rgb(210,24,5)" rx="2" ry="2" />
<text  x="200.17" y="495.5" >[unknown]</text>
</g>
<g >
<title>_dl_map_segments (997,393 samples, 38.55%)</title><rect x="325.2" y="533" width="454.9" height="15.0" fill="rgb(254,227,54)" rx="2" ry="2" />
<text  x="328.18" y="543.5" >_dl_map_segments</text>
</g>
<g >
<title>[unknown] (207,969 samples, 8.04%)</title><rect x="1095.1" y="421" width="94.9" height="15.0" fill="rgb(210,24,5)" rx="2" ry="2" />
<text  x="1098.14" y="431.5" >[unknown]</text>
</g>
<g >
<title>[unknown] (312,065 samples, 12.06%)</title><rect x="10.0" y="485" width="142.3" height="15.0" fill="rgb(210,24,5)" rx="2" ry="2" />
<text  x="13.00" y="495.5" >[unknown]</text>
</g>
<g >
<title>_dl_catch_exception (997,393 samples, 38.55%)</title><rect x="325.2" y="597" width="454.9" height="15.0" fill="rgb(253,223,53)" rx="2" ry="2" />
<text  x="328.18" y="607.5" >_dl_catch_exception</text>
</g>
<g >
<title>[unknown] (997,391 samples, 38.55%)</title><rect x="325.2" y="277" width="454.9" height="15.0" fill="rgb(210,24,5)" rx="2" ry="2" />
<text  x="328.19" y="287.5" >[unknown]</text>
</g>
<g >
<title>[unknown] (232,334 samples, 8.98%)</title><rect x="901.1" y="229" width="106.0" height="15.0" fill="rgb(210,24,5)" rx="2" ry="2" />
<text  x="904.15" y="239.5" >[unknown]</text>
</g>
<g >
<title>__run_exit_handlers (280,666 samples, 10.85%)</title><rect x="197.2" y="629" width="128.0" height="15.0" fill="rgb(216,51,12)" rx="2" ry="2" />
<text  x="200.17" y="639.5" >__run_exit_handl..</text>
</g>
<g >
<title>&lt;std::io::stdio::StdoutLock as std::io::Write&gt;::write_all (312,065 samples, 12.06%)</title><rect x="10.0" y="693" width="142.3" height="15.0" fill="rgb(253,225,53)" rx="2" ry="2" />
<text  x="13.00" y="703.5" >&lt;std::io::stdio::S..</text>
</g>
<g >
<title>[unknown] (373,801 samples, 14.45%)</title><rect x="836.6" y="373" width="170.5" height="15.0" fill="rgb(210,24,5)" rx="2" ry="2" />
<text  x="839.62" y="383.5" >[unknown]</text>
</g>
<g >
<title>[unknown] (312,065 samples, 12.06%)</title><rect x="10.0" y="501" width="142.3" height="15.0" fill="rgb(210,24,5)" rx="2" ry="2" />
<text  x="13.00" y="511.5" >[unknown]</text>
</g>
<g >
<title>[unknown] (280,666 samples, 10.85%)</title><rect x="197.2" y="549" width="128.0" height="15.0" fill="rgb(210,24,5)" rx="2" ry="2" />
<text  x="200.17" y="559.5" >[unknown]</text>
</g>
<g >
<title>[unknown] (997,393 samples, 38.55%)</title><rect x="325.2" y="357" width="454.9" height="15.0" fill="rgb(210,24,5)" rx="2" ry="2" />
<text  x="328.18" y="367.5" >[unknown]</text>
</g>
<g >
<title>[unknown] (98,277 samples, 3.80%)</title><rect x="152.3" y="453" width="44.9" height="15.0" fill="rgb(210,24,5)" rx="2" ry="2" />
<text  x="155.34" y="463.5" >[unk..</text>
</g>
<g >
<title>exit (280,666 samples, 10.85%)</title><rect x="197.2" y="645" width="128.0" height="15.0" fill="rgb(208,15,3)" rx="2" ry="2" />
<text  x="200.17" y="655.5" >exit</text>
</g>
<g >
<title>[unknown] (98,278 samples, 3.80%)</title><rect x="152.3" y="661" width="44.9" height="15.0" fill="rgb(210,24,5)" rx="2" ry="2" />
<text  x="155.34" y="671.5" >[unk..</text>
</g>
<g >
<title>[unknown] (583,361 samples, 22.55%)</title><rect x="514.0" y="245" width="266.1" height="15.0" fill="rgb(210,24,5)" rx="2" ry="2" />
<text  x="517.03" y="255.5" >[unknown]</text>
</g>
<g >
<title>[unknown] (497,682 samples, 19.24%)</title><rect x="780.1" y="565" width="227.0" height="15.0" fill="rgb(210,24,5)" rx="2" ry="2" />
<text  x="783.12" y="575.5" >[unknown]</text>
</g>
<g >
<title>[unknown] (207,969 samples, 8.04%)</title><rect x="1095.1" y="453" width="94.9" height="15.0" fill="rgb(210,24,5)" rx="2" ry="2" />
<text  x="1098.14" y="463.5" >[unknown]</text>
</g>
<g >
<title>__syscall_cancel (312,065 samples, 12.06%)</title><rect x="10.0" y="645" width="142.3" height="15.0" fill="rgb(227,102,24)" rx="2" ry="2" />
<text  x="13.00" y="655.5" >__syscall_cancel</text>
</g>
<g >
<title>[unknown] (497,679 samples, 19.24%)</title><rect x="780.1" y="405" width="227.0" height="15.0" fill="rgb(210,24,5)" rx="2" ry="2" />
<text  x="783.12" y="415.5" >[unknown]</text>
</g>
<g >
<title>[unknown] (280,666 samples, 10.85%)</title><rect x="197.2" y="517" width="128.0" height="15.0" fill="rgb(210,24,5)" rx="2" ry="2" />
<text  x="200.17" y="527.5" >[unknown]</text>
</g>
<g >
<title>[unknown] (98,278 samples, 3.80%)</title><rect x="152.3" y="597" width="44.9" height="15.0" fill="rgb(210,24,5)" rx="2" ry="2" />
<text  x="155.34" y="607.5" >[unk..</text>
</g>
<g >
<title>[unknown] (280,666 samples, 10.85%)</title><rect x="197.2" y="437" width="128.0" height="15.0" fill="rgb(210,24,5)" rx="2" ry="2" />
<text  x="200.17" y="447.5" >[unknown]</text>
</g>
<g >
<title>init_cpu_features (400,943 samples, 15.50%)</title><rect x="1007.1" y="613" width="182.9" height="15.0" fill="rgb(225,96,23)" rx="2" ry="2" />
<text  x="1010.12" y="623.5" >init_cpu_features</text>
</g>
<g >
<title>[unknown] (98,277 samples, 3.80%)</title><rect x="152.3" y="421" width="44.9" height="15.0" fill="rgb(210,24,5)" rx="2" ry="2" />
<text  x="155.34" y="431.5" >[unk..</text>
</g>
<g >
<title>[unknown] (583,361 samples, 22.55%)</title><rect x="514.0" y="213" width="266.1" height="15.0" fill="rgb(210,24,5)" rx="2" ry="2" />
<text  x="517.03" y="223.5" >[unknown]</text>
</g>
<g >
<title>[unknown] (497,682 samples, 19.24%)</title><rect x="780.1" y="533" width="227.0" height="15.0" fill="rgb(210,24,5)" rx="2" ry="2" />
<text  x="783.12" y="543.5" >[unknown]</text>
</g>
<g >
<title>handle_amd (400,943 samples, 15.50%)</title><rect x="1007.1" y="581" width="182.9" height="15.0" fill="rgb(217,59,14)" rx="2" ry="2" />
<text  x="1010.12" y="591.5" >handle_amd</text>
</g>
<g >
<title>[unknown] (156,032 samples, 6.03%)</title><rect x="81.2" y="341" width="71.1" height="15.0" fill="rgb(210,24,5)" rx="2" ry="2" />
<text  x="84.17" y="351.5" >[unknown]</text>
</g>
<g >
<title>[unknown] (133,623 samples, 5.17%)</title><rect x="264.2" y="389" width="61.0" height="15.0" fill="rgb(210,24,5)" rx="2" ry="2" />
<text  x="267.24" y="399.5" >[unkno..</text>
</g>
<g >
<title>[unknown] (312,065 samples, 12.06%)</title><rect x="10.0" y="469" width="142.3" height="15.0" fill="rgb(210,24,5)" rx="2" ry="2" />
<text  x="13.00" y="479.5" >[unknown]</text>
</g>
<g >
<title>[unknown] (997,393 samples, 38.55%)</title><rect x="325.2" y="389" width="454.9" height="15.0" fill="rgb(210,24,5)" rx="2" ry="2" />
<text  x="328.18" y="399.5" >[unknown]</text>
</g>
<g >
<title>__internal_syscall_cancel (312,065 samples, 12.06%)</title><rect x="10.0" y="629" width="142.3" height="15.0" fill="rgb(251,214,51)" rx="2" ry="2" />
<text  x="13.00" y="639.5" >__internal_syscall..</text>
</g>
<g >
<title>_dl_map_new_object (997,393 samples, 38.55%)</title><rect x="325.2" y="565" width="454.9" height="15.0" fill="rgb(252,220,52)" rx="2" ry="2" />
<text  x="328.18" y="575.5" >_dl_map_new_object</text>
</g>
<g >
<title>_dl_map_object_from_fd (997,393 samples, 38.55%)</title><rect x="325.2" y="549" width="454.9" height="15.0" fill="rgb(249,205,49)" rx="2" ry="2" />
<text  x="328.18" y="559.5" >_dl_map_object_from_fd</text>
</g>
<g >
<title>[unknown] (156,032 samples, 6.03%)</title><rect x="81.2" y="325" width="71.1" height="15.0" fill="rgb(210,24,5)" rx="2" ry="2" />
<text  x="84.17" y="335.5" >[unknown]</text>
</g>
<g >
<title>[unknown] (997,393 samples, 38.55%)</title><rect x="325.2" y="437" width="454.9" height="15.0" fill="rgb(210,24,5)" rx="2" ry="2" />
<text  x="328.18" y="447.5" >[unknown]</text>
</g>
<g >
<title>[unknown] (232,334 samples, 8.98%)</title><rect x="901.1" y="245" width="106.0" height="15.0" fill="rgb(210,24,5)" rx="2" ry="2" />
<text  x="904.15" y="255.5" >[unknown]</text>
</g>
<g >
<title>[unknown] (207,969 samples, 8.04%)</title><rect x="1095.1" y="501" width="94.9" height="15.0" fill="rgb(210,24,5)" rx="2" ry="2" />
<text  x="1098.14" y="511.5" >[unknown]</text>
</g>
<g >
<title>[unknown] (312,065 samples, 12.06%)</title><rect x="10.0" y="421" width="142.3" height="15.0" fill="rgb(210,24,5)" rx="2" ry="2" />
<text  x="13.00" y="431.5" >[unknown]</text>
</g>
<g >
<title>[unknown] (373,801 samples, 14.45%)</title><rect x="836.6" y="357" width="170.5" height="15.0" fill="rgb(210,24,5)" rx="2" ry="2" />
<text  x="839.62" y="367.5" >[unknown]</text>
</g>
<g >
<title>[unknown] (98,278 samples, 3.80%)</title><rect x="152.3" y="613" width="44.9" height="15.0" fill="rgb(210,24,5)" rx="2" ry="2" />
<text  x="155.34" y="623.5" >[unk..</text>
</g>
<g >
<title>[unknown] (280,666 samples, 10.85%)</title><rect x="197.2" y="565" width="128.0" height="15.0" fill="rgb(210,24,5)" rx="2" ry="2" />
<text  x="200.17" y="575.5" >[unknown]</text>
</g>
<g >
<title>[unknown] (207,969 samples, 8.04%)</title><rect x="1095.1" y="485" width="94.9" height="15.0" fill="rgb(210,24,5)" rx="2" ry="2" />
<text  x="1098.14" y="495.5" >[unknown]</text>
</g>
<g >
<title>[unknown] (98,277 samples, 3.80%)</title><rect x="152.3" y="469" width="44.9" height="15.0" fill="rgb(210,24,5)" rx="2" ry="2" />
<text  x="155.34" y="479.5" >[unk..</text>
</g>
<g >
<title>_dl_start_final (1,896,018 samples, 73.29%)</title><rect x="325.2" y="661" width="864.8" height="15.0" fill="rgb(252,216,51)" rx="2" ry="2" />
<text  x="328.18" y="671.5" >_dl_start_final</text>
</g>
<g >
<title>[unknown] (997,393 samples, 38.55%)</title><rect x="325.2" y="373" width="454.9" height="15.0" fill="rgb(210,24,5)" rx="2" ry="2" />
<text  x="328.18" y="383.5" >[unknown]</text>
</g>
<g >
<title>openaux (997,393 samples, 38.55%)</title><rect x="325.2" y="581" width="454.9" height="15.0" fill="rgb(252,217,52)" rx="2" ry="2" />
<text  x="328.18" y="591.5" >openaux</text>
</g>
<g >
<title>[unknown] (497,682 samples, 19.24%)</title><rect x="780.1" y="549" width="227.0" height="15.0" fill="rgb(210,24,5)" rx="2" ry="2" />
<text  x="783.12" y="559.5" >[unknown]</text>
</g>
<g >
<title>[unknown] (583,361 samples, 22.55%)</title><rect x="514.0" y="229" width="266.1" height="15.0" fill="rgb(210,24,5)" rx="2" ry="2" />
<text  x="517.03" y="239.5" >[unknown]</text>
</g>
<g >
<title>[unknown] (232,334 samples, 8.98%)</title><rect x="901.1" y="277" width="106.0" height="15.0" fill="rgb(210,24,5)" rx="2" ry="2" />
<text  x="904.15" y="287.5" >[unknown]</text>
</g>
<g >
<title>[unknown] (280,666 samples, 10.85%)</title><rect x="197.2" y="581" width="128.0" height="15.0" fill="rgb(210,24,5)" rx="2" ry="2" />
<text  x="200.17" y="591.5" >[unknown]</text>
</g>
<g >
<title>[unknown] (583,361 samples, 22.55%)</title><rect x="514.0" y="117" width="266.1" height="15.0" fill="rgb(210,24,5)" rx="2" ry="2" />
<text  x="517.03" y="127.5" >[unknown]</text>
</g>
<g >
<title>[unknown] (497,679 samples, 19.24%)</title><rect x="780.1" y="389" width="227.0" height="15.0" fill="rgb(210,24,5)" rx="2" ry="2" />
<text  x="783.12" y="399.5" >[unknown]</text>
</g>
<g >
<title>[unknown] (280,666 samples, 10.85%)</title><rect x="197.2" y="533" width="128.0" height="15.0" fill="rgb(210,24,5)" rx="2" ry="2" />
<text  x="200.17" y="543.5" >[unknown]</text>
</g>
<g >
<title>[unknown] (312,065 samples, 12.06%)</title><rect x="10.0" y="581" width="142.3" height="15.0" fill="rgb(210,24,5)" rx="2" ry="2" />
<text  x="13.00" y="591.5" >[unknown]</text>
</g>
<g >
<title>__libc_start_main_impl (280,666 samples, 10.85%)</title><rect x="197.2" y="677" width="128.0" height="15.0" fill="rgb(218,63,15)" rx="2" ry="2" />
<text  x="200.17" y="687.5" >__libc_start_mai..</text>
</g>
<g >
<title>[unknown] (497,682 samples, 19.24%)</title><rect x="780.1" y="437" width="227.0" height="15.0" fill="rgb(210,24,5)" rx="2" ry="2" />
<text  x="783.12" y="447.5" >[unknown]</text>
</g>
<g >
<title>[unknown] (312,065 samples, 12.06%)</title><rect x="10.0" y="453" width="142.3" height="15.0" fill="rgb(210,24,5)" rx="2" ry="2" />
<text  x="13.00" y="463.5" >[unknown]</text>
</g>
<g >
<title>[unknown] (497,682 samples, 19.24%)</title><rect x="780.1" y="581" width="227.0" height="15.0" fill="rgb(210,24,5)" rx="2" ry="2" />
<text  x="783.12" y="591.5" >[unknown]</text>
</g>
<g >
<title>[unknown] (232,334 samples, 8.98%)</title><rect x="901.1" y="213" width="106.0" height="15.0" fill="rgb(210,24,5)" rx="2" ry="2" />
<text  x="904.15" y="223.5" >[unknown]</text>
</g>
<g >
<title>std::io::buffered::bufwriter::BufWriter&lt;W&gt;::flush_buf (312,065 samples, 12.06%)</title><rect x="10.0" y="677" width="142.3" height="15.0" fill="rgb(225,92,22)" rx="2" ry="2" />
<text  x="13.00" y="687.5" >std::io::buffered:..</text>
</g>
<g >
<title>[unknown] (497,682 samples, 19.24%)</title><rect x="780.1" y="517" width="227.0" height="15.0" fill="rgb(210,24,5)" rx="2" ry="2" />
<text  x="783.12" y="527.5" >[unknown]</text>
</g>
<g >
<title>[unknown] (280,666 samples, 10.85%)</title><rect x="197.2" y="405" width="128.0" height="15.0" fill="rgb(210,24,5)" rx="2" ry="2" />
<text  x="200.17" y="415.5" >[unknown]</text>
</g>
<g >
<title>_exit (280,666 samples, 10.85%)</title><rect x="197.2" y="613" width="128.0" height="15.0" fill="rgb(244,182,43)" rx="2" ry="2" />
<text  x="200.17" y="623.5" >_exit</text>
</g>
<g >
<title>[unknown] (98,277 samples, 3.80%)</title><rect x="152.3" y="501" width="44.9" height="15.0" fill="rgb(210,24,5)" rx="2" ry="2" />
<text  x="155.34" y="511.5" >[unk..</text>
</g>
<g >
<title>[unknown] (583,361 samples, 22.55%)</title><rect x="514.0" y="197" width="266.1" height="15.0" fill="rgb(210,24,5)" rx="2" ry="2" />
<text  x="517.03" y="207.5" >[unknown]</text>
</g>
<g >
<title>all (2,587,029 samples, 100%)</title><rect x="10.0" y="725" width="1180.0" height="15.0" fill="rgb(213,39,9)" rx="2" ry="2" />
<text  x="13.00" y="735.5" ></text>
</g>
<g >
<title>__mmap64 (997,393 samples, 38.55%)</title><rect x="325.2" y="517" width="454.9" height="15.0" fill="rgb(243,175,41)" rx="2" ry="2" />
<text  x="328.18" y="527.5" >__mmap64</text>
</g>
<g >
<title>[unknown] (997,393 samples, 38.55%)</title><rect x="325.2" y="405" width="454.9" height="15.0" fill="rgb(210,24,5)" rx="2" ry="2" />
<text  x="328.18" y="415.5" >[unknown]</text>
</g>
<g >
<title>[unknown] (207,969 samples, 8.04%)</title><rect x="1095.1" y="469" width="94.9" height="15.0" fill="rgb(210,24,5)" rx="2" ry="2" />
<text  x="1098.14" y="479.5" >[unknown]</text>
</g>
<g >
<title>[unknown] (98,277 samples, 3.80%)</title><rect x="152.3" y="485" width="44.9" height="15.0" fill="rgb(210,24,5)" rx="2" ry="2" />
<text  x="155.34" y="495.5" >[unk..</text>
</g>
<g >
<title>dl_platform_init (400,943 samples, 15.50%)</title><rect x="1007.1" y="629" width="182.9" height="15.0" fill="rgb(212,33,8)" rx="2" ry="2" />
<text  x="1010.12" y="639.5" >dl_platform_init</text>
</g>
<g >
<title>_dl_start (1,896,018 samples, 73.29%)</title><rect x="325.2" y="677" width="864.8" height="15.0" fill="rgb(237,151,36)" rx="2" ry="2" />
<text  x="328.18" y="687.5" >_dl_start</text>
</g>
<g >
<title>[unknown] (207,969 samples, 8.04%)</title><rect x="1095.1" y="437" width="94.9" height="15.0" fill="rgb(210,24,5)" rx="2" ry="2" />
<text  x="1098.14" y="447.5" >[unknown]</text>
</g>
<g >
<title>[unknown] (207,969 samples, 8.04%)</title><rect x="1095.1" y="389" width="94.9" height="15.0" fill="rgb(210,24,5)" rx="2" ry="2" />
<text  x="1098.14" y="399.5" >[unknown]</text>
</g>
<g >
<title>[unknown] (997,391 samples, 38.55%)</title><rect x="325.2" y="261" width="454.9" height="15.0" fill="rgb(210,24,5)" rx="2" ry="2" />
<text  x="328.19" y="271.5" >[unknown]</text>
</g>
<g >
<title>[unknown] (312,065 samples, 12.06%)</title><rect x="10.0" y="405" width="142.3" height="15.0" fill="rgb(210,24,5)" rx="2" ry="2" />
<text  x="13.00" y="415.5" >[unknown]</text>
</g>
<g >
<title>__libc_write (312,065 samples, 12.06%)</title><rect x="10.0" y="661" width="142.3" height="15.0" fill="rgb(238,154,37)" rx="2" ry="2" />
<text  x="13.00" y="671.5" >__libc_write</text>
</g>
<g >
<title>[unknown] (312,065 samples, 12.06%)</title><rect x="10.0" y="597" width="142.3" height="15.0" fill="rgb(210,24,5)" rx="2" ry="2" />
<text  x="13.00" y="607.5" >[unknown]</text>
</g>
<g >
<title>[unknown] (98,278 samples, 3.80%)</title><rect x="152.3" y="549" width="44.9" height="15.0" fill="rgb(210,24,5)" rx="2" ry="2" />
<text  x="155.34" y="559.5" >[unk..</text>
</g>
<g >
<title>[unknown] (373,801 samples, 14.45%)</title><rect x="836.6" y="325" width="170.5" height="15.0" fill="rgb(210,24,5)" rx="2" ry="2" />
<text  x="839.62" y="335.5" >[unknown]</text>
</g>
<g >
<title>[unknown] (280,666 samples, 10.85%)</title><rect x="197.2" y="453" width="128.0" height="15.0" fill="rgb(210,24,5)" rx="2" ry="2" />
<text  x="200.17" y="463.5" >[unknown]</text>
</g>
<g >
<title>[unknown] (207,969 samples, 8.04%)</title><rect x="1095.1" y="517" width="94.9" height="15.0" fill="rgb(210,24,5)" rx="2" ry="2" />
<text  x="1098.14" y="527.5" >[unknown]</text>
</g>
<g >
<title>[unknown] (312,065 samples, 12.06%)</title><rect x="10.0" y="533" width="142.3" height="15.0" fill="rgb(210,24,5)" rx="2" ry="2" />
<text  x="13.00" y="543.5" >[unknown]</text>
</g>
<g >
<title>[unknown] (373,801 samples, 14.45%)</title><rect x="836.6" y="341" width="170.5" height="15.0" fill="rgb(210,24,5)" rx="2" ry="2" />
<text  x="839.62" y="351.5" >[unknown]</text>
</g>
<g >
<title>[unknown] (497,682 samples, 19.24%)</title><rect x="780.1" y="469" width="227.0" height="15.0" fill="rgb(210,24,5)" rx="2" ry="2" />
<text  x="783.12" y="479.5" >[unknown]</text>
</g>
<g >
<title>[unknown] (997,393 samples, 38.55%)</title><rect x="325.2" y="453" width="454.9" height="15.0" fill="rgb(210,24,5)" rx="2" ry="2" />
<text  x="328.18" y="463.5" >[unknown]</text>
</g>
<g >
<title>[unknown] (583,361 samples, 22.55%)</title><rect x="514.0" y="149" width="266.1" height="15.0" fill="rgb(210,24,5)" rx="2" ry="2" />
<text  x="517.03" y="159.5" >[unknown]</text>
</g>
<g >
<title>[unknown] (583,361 samples, 22.55%)</title><rect x="514.0" y="69" width="266.1" height="15.0" fill="rgb(210,24,5)" rx="2" ry="2" />
<text  x="517.03" y="79.5" >[unknown]</text>
</g>
<g >
<title>[unknown] (497,682 samples, 19.24%)</title><rect x="780.1" y="501" width="227.0" height="15.0" fill="rgb(210,24,5)" rx="2" ry="2" />
<text  x="783.12" y="511.5" >[unknown]</text>
</g>
<g >
<title>[unknown] (312,065 samples, 12.06%)</title><rect x="10.0" y="373" width="142.3" height="15.0" fill="rgb(210,24,5)" rx="2" ry="2" />
<text  x="13.00" y="383.5" >[unknown]</text>
</g>
<g >
<title>[unknown] (373,801 samples, 14.45%)</title><rect x="836.6" y="309" width="170.5" height="15.0" fill="rgb(210,24,5)" rx="2" ry="2" />
<text  x="839.62" y="319.5" >[unknown]</text>
</g>
<g >
<title>_dl_protect_relro (497,682 samples, 19.24%)</title><rect x="780.1" y="613" width="227.0" height="15.0" fill="rgb(221,74,17)" rx="2" ry="2" />
<text  x="783.12" y="623.5" >_dl_protect_relro</text>
</g>
<g >
<title>[unknown] (997,391 samples, 38.55%)</title><rect x="325.2" y="293" width="454.9" height="15.0" fill="rgb(210,24,5)" rx="2" ry="2" />
<text  x="328.19" y="303.5" >[unknown]</text>
</g>
<g >
<title>demo (2,587,027 samples, 100.00%)</title><rect x="10.0" y="709" width="1180.0" height="15.0" fill="rgb(243,179,42)" rx="2" ry="2" />
<text  x="13.00" y="719.5" >demo</text>
</g>
<g >
<title>[unknown] (583,361 samples, 22.55%)</title><rect x="514.0" y="181" width="266.1" height="15.0" fill="rgb(210,24,5)" rx="2" ry="2" />
<text  x="517.03" y="191.5" >[unknown]</text>
</g>
<g >
<title>[unknown] (98,277 samples, 3.80%)</title><rect x="152.3" y="517" width="44.9" height="15.0" fill="rgb(210,24,5)" rx="2" ry="2" />
<text  x="155.34" y="527.5" >[unk..</text>
</g>
<g >
<title>[unknown] (497,682 samples, 19.24%)</title><rect x="780.1" y="485" width="227.0" height="15.0" fill="rgb(210,24,5)" rx="2" ry="2" />
<text  x="783.12" y="495.5" >[unknown]</text>
</g>
<g >
<title>[unknown] (207,969 samples, 8.04%)</title><rect x="1095.1" y="357" width="94.9" height="15.0" fill="rgb(210,24,5)" rx="2" ry="2" />
<text  x="1098.14" y="367.5" >[unknown]</text>
</g>
<g >
<title>[unknown] (583,361 samples, 22.55%)</title><rect x="514.0" y="165" width="266.1" height="15.0" fill="rgb(210,24,5)" rx="2" ry="2" />
<text  x="517.03" y="175.5" >[unknown]</text>
</g>
<g >
<title>[unknown] (98,278 samples, 3.80%)</title><rect x="152.3" y="645" width="44.9" height="15.0" fill="rgb(210,24,5)" rx="2" ry="2" />
<text  x="155.34" y="655.5" >[unk..</text>
</g>
<g >
<title>[unknown] (312,065 samples, 12.06%)</title><rect x="10.0" y="565" width="142.3" height="15.0" fill="rgb(210,24,5)" rx="2" ry="2" />
<text  x="13.00" y="575.5" >[unknown]</text>
</g>
<g >
<title>[unknown] (98,277 samples, 3.80%)</title><rect x="152.3" y="437" width="44.9" height="15.0" fill="rgb(210,24,5)" rx="2" ry="2" />
<text  x="155.34" y="447.5" >[unk..</text>
</g>
<g >
<title>[unknown] (280,666 samples, 10.85%)</title><rect x="197.2" y="421" width="128.0" height="15.0" fill="rgb(210,24,5)" rx="2" ry="2" />
<text  x="200.17" y="431.5" >[unknown]</text>
</g>
<g >
<title>[unknown] (280,666 samples, 10.85%)</title><rect x="197.2" y="597" width="128.0" height="15.0" fill="rgb(210,24,5)" rx="2" ry="2" />
<text  x="200.17" y="607.5" >[unknown]</text>
</g>
<g >
<title>[unknown] (583,361 samples, 22.55%)</title><rect x="514.0" y="37" width="266.1" height="15.0" fill="rgb(210,24,5)" rx="2" ry="2" />
<text  x="517.03" y="47.5" >[unknown]</text>
</g>
<g >
<title>__mmap64 (997,393 samples, 38.55%)</title><rect x="325.2" y="501" width="454.9" height="15.0" fill="rgb(243,175,41)" rx="2" ry="2" />
<text  x="328.18" y="511.5" >__mmap64</text>
</g>
<g >
<title>[unknown] (207,969 samples, 8.04%)</title><rect x="1095.1" y="549" width="94.9" height="15.0" fill="rgb(210,24,5)" rx="2" ry="2" />
<text  x="1098.14" y="559.5" >[unknown]</text>
</g>
<g >
<title>[unknown] (997,393 samples, 38.55%)</title><rect x="325.2" y="421" width="454.9" height="15.0" fill="rgb(210,24,5)" rx="2" ry="2" />
<text  x="328.18" y="431.5" >[unknown]</text>
</g>
</g>
</svg>
